<svg width="463.83425" height="463" xmlns="http://www.w3.org/2000/svg">

 <g>
  <title>background</title>
  <rect fill="none" id="canvas_background" height="402" width="582" y="-1" x="-1"/>
 </g>
 <g>
  <title>Layer 1</title>
  <path id="svg_1" fill="#f4a36b" d="m375.835938,112.957031c-5.851563,0 -11.691407,0.582031 -17.425782,1.742188c-4.324218,-21.582031 -18.304687,-39.992188 -37.933594,-49.957031c-19.625,-9.964844 -42.738281,-10.382813 -62.714843,-1.136719c-18.078125,-49.796875 -73.101563,-75.507813 -122.898438,-57.429688s-75.507812,73.105469 -57.429687,122.898438c-43.621094,1.378906 -78.078125,37.484375 -77.425782,81.121093c0.65625,43.640626 36.183594,78.691407 79.828126,78.761719l296,0c48.597656,0 88,-39.398437 88,-88c0,-48.601562 -39.402344,-88 -88,-88zm0,0"/>
 </g>
</svg>