<svg width="512" height="512" xmlns="http://www.w3.org/2000/svg">

 <g>
  <title>background</title>
  <rect fill="none" id="canvas_background" height="402" width="582" y="-1" x="-1"/>
 </g>
 <g>
  <title>Layer 1</title>
  <g fill="white" id="svg_1">
   <g fill="#f4a36b" id="svg_2">
    <path fill="#ffe1af" id="svg_3" d="m512,64c0,-23.875 -20.75,-55.698 -23.125,-59.25c-2.708,-4.084 -7.875,-5.75 -12.417,-4.146c-4.604,1.625 -7.521,6.167 -7.083,11.031c5.167,56.771 -28.083,73.635 -63.271,91.49c-30.354,15.406 -64.771,32.854 -64.771,78.208c0,22.417 5.438,34.594 10.708,46.354c5.458,12.229 10.625,23.771 10.625,49.646c0,33.223 -16.763,50.956 -26.438,58.477c-19.573,-22.557 -48.092,-37.143 -80.229,-37.143c-32.132,0 -60.648,14.583 -80.221,37.134c-9.615,-7.492 -26.445,-25.241 -26.445,-58.467c0,-25.875 5.167,-37.417 10.625,-49.646c5.271,-11.76 10.708,-23.938 10.708,-46.354c0,-45.354 -34.417,-62.802 -64.771,-78.208c-35.187,-17.856 -68.437,-34.72 -63.27,-91.491c0.438,-4.865 -2.479,-9.406 -7.083,-11.031c-4.604,-1.584 -9.709,0.083 -12.417,4.146c-2.375,3.552 -23.125,35.375 -23.125,59.25c0,20.906 0.375,24.24 9,41.802c-4.063,7.26 -9,20.781 -9,43.531c0,28.594 20.729,49.333 31.083,57.896c-2,18.427 3.167,48.167 33.604,66.146c3.105,14.852 19.409,47.967 97.827,81.676c-8.135,15.052 -13.181,32.007 -13.181,50.283c0,58.811 47.855,106.666 106.667,106.666s106.667,-47.854 106.667,-106.667c0,-18.279 -5.048,-35.236 -13.185,-50.289c78.405,-33.704 94.725,-66.819 97.831,-81.669c30.417,-17.979 35.604,-47.719 33.604,-66.146c10.354,-8.563 31.083,-29.302 31.083,-57.896c0,-22.75 -4.938,-36.271 -9,-43.531c8.625,-17.563 9,-20.896 9,-41.802zm-256,405.333c-35.292,0 -64,-28.708 -64,-64c0,-5.896 4.771,-10.667 10.667,-10.667c5.896,0 10.667,4.771 10.667,10.667c-0.001,23.531 19.145,42.667 42.666,42.667c5.896,0 10.667,4.771 10.667,10.667c0,5.895 -4.771,10.666 -10.667,10.666z"/>
   </g>
  </g>
  <g id="svg_4"/>
  <g id="svg_5"/>
  <g id="svg_6"/>
  <g id="svg_7"/>
  <g id="svg_8"/>
  <g id="svg_9"/>
  <g id="svg_10"/>
  <g id="svg_11"/>
  <g id="svg_12"/>
  <g id="svg_13"/>
  <g id="svg_14"/>
  <g id="svg_15"/>
  <g id="svg_16"/>
  <g id="svg_17"/>
  <g id="svg_18"/>
 </g>
</svg>